# xmcd
#
# Track frame offsets: 
#        150
#        14206
#        29870
#        41924
#        56495
#        77811
#        86868
#        98704
#        111686
#        127051
#        146391
#        156099
#        165618
#        177907
#        191063
#        202348
#        218649
#        228725
#        243273
#
# Disc length: 3472 seconds
#
# Revision: 2
# Processed by: cddbd v1.5.2PL0 Copyright (c) Steve Scherf et al.
# Submitted via: ExactAudioCopy v1.0b1
#
DISCID=250d8e13
DTITLE=Various Artist - Costa - Meer, Swing, Genuss!
DYEAR=2007
DGENRE=Swing
TTITLE0=Bobby Darin - Mack The Knife
TTITLE1=Aretha Franklin - I Say A Little Prayer
TTITLE2=Dionne Warwick - Walk On By
TTITLE3=Andy Williams - Can't Take My Eyes Of You
TTITLE4=Louis Prima - Just A Gigolo
TTITLE5=Shirley Bassey - Big Spender
TTITLE6=Dean Martin - Sway
TTITLE7=BJ Thomas - Raindrops Keep Falling On My Head
TTITLE8=Engelbert - As Time Goes By
TTITLE9=Gene Kelly - Singing In The Rain
TTITLE10=Fred Astaire - Puttin' On The Ritz
TTITLE11=Doris Day - Que Sera Sera
TTITLE12=Perry Como - Papa Loves Mambo
TTITLE13=Tony Bennett - I Left My Heart In San Francisco
TTITLE14=Dinah Washington - What A Difference A Day Makes
TTITLE15=Tom Jones - She's A Lady
TTITLE16=Dean Martin - Memories Are Made Of This
TTITLE17=Jackie De Shannon - What The World Needs Now Is Love
TTITLE18=Vic Damone - Smoke Gets In Your Eyes
EXTD=YEAR: 2007
EXTT0=
EXTT1=
EXTT2=
EXTT3=
EXTT4=
EXTT5=
EXTT6=
EXTT7=
EXTT8=
EXTT9=
EXTT10=
EXTT11=
EXTT12=
EXTT13=
EXTT14=
EXTT15=
EXTT16=
EXTT17=
EXTT18=
PLAYORDER=
